<?xml version="1.0" encoding="UTF-8"?>
<svg width="402px" height="194px" viewBox="0 0 402 194" version="1.1" xmlns="http://www.w3.org/2000/svg" xmlns:xlink="http://www.w3.org/1999/xlink">
    <!-- Generator: Sketch 40.3 (33839) - http://www.bohemiancoding.com/sketch -->
    <title>title</title>
    <desc>Created with Sketch.</desc>
    <defs>
        <path d="M11.4277344,174 L6.88671875,174 L6.88671875,156.363281 L1.07128906,156.363281 L1.07128906,152.583984 L17.2431641,152.583984 L17.2431641,156.363281 L11.4277344,156.363281 L11.4277344,174 Z M35.3046875,174 L30.8369141,174 L30.8369141,164.43457 C30.8369141,162.071277 29.9580166,160.889648 28.2001953,160.889648 C26.9501891,160.889648 26.0468778,161.314449 25.4902344,162.164062 C24.933591,163.013676 24.6552734,164.390615 24.6552734,166.294922 L24.6552734,174 L20.1875,174 L20.1875,151.207031 L24.6552734,151.207031 L24.6552734,155.850586 C24.6552734,156.211916 24.6210941,157.061517 24.5527344,158.399414 L24.4501953,159.717773 L24.6845703,159.717773 C25.680669,158.116203 27.2626845,157.31543 29.4306641,157.31543 C31.3545018,157.31543 32.8144481,157.833003 33.8105469,158.868164 C34.8066456,159.903325 35.3046875,161.387686 35.3046875,163.321289 L35.3046875,174 Z M46.6865234,160.494141 C45.7392531,160.494141 44.997073,160.794431 44.4599609,161.39502 C43.9228489,161.995608 43.6152348,162.847651 43.5371094,163.951172 L49.8066406,163.951172 C49.7871093,162.847651 49.4990262,161.995608 48.9423828,161.39502 C48.3857394,160.794431 47.6337938,160.494141 46.6865234,160.494141 L46.6865234,160.494141 Z M47.3164062,174.292969 C44.6796743,174.292969 42.619148,173.565437 41.1347656,172.110352 C39.6503832,170.655266 38.9082031,168.59474 38.9082031,165.928711 C38.9082031,163.184557 39.5942314,161.062996 40.9663086,159.563965 C42.3383858,158.064934 44.2353395,157.31543 46.6572266,157.31543 C48.9716913,157.31543 50.7734311,157.974603 52.0625,159.292969 C53.3515689,160.611335 53.9960938,162.432606 53.9960938,164.756836 L53.9960938,166.924805 L43.4345703,166.924805 C43.4833987,168.194342 43.8593715,169.185543 44.5625,169.898438 C45.2656285,170.611332 46.2519468,170.967773 47.5214844,170.967773 C48.5078174,170.967773 49.4404253,170.865235 50.3193359,170.660156 C51.1982466,170.455077 52.1162062,170.127932 53.0732422,169.678711 L53.0732422,173.135742 C52.2919883,173.526369 51.4570357,173.816894 50.5683594,174.007324 C49.6796831,174.197755 48.5957095,174.292969 47.3164062,174.292969 L47.3164062,174.292969 Z M68.9814453,165.782227 C68.9814453,167.403328 69.2475559,168.628902 69.7797852,169.458984 C70.3120144,170.289067 71.1787049,170.704102 72.3798828,170.704102 C73.571295,170.704102 74.42822,170.291508 74.9506836,169.466309 C75.4731471,168.641109 75.734375,167.413094 75.734375,165.782227 C75.734375,164.161125 75.4707058,162.945317 74.9433594,162.134766 C74.416013,161.324215 73.5517638,160.918945 72.3505859,160.918945 C71.1591737,160.918945 70.2998073,161.321773 69.7724609,162.127441 C69.2451146,162.933109 68.9814453,164.151359 68.9814453,165.782227 L68.9814453,165.782227 Z M80.3046875,165.782227 C80.3046875,168.448256 79.6015695,170.533196 78.1953125,172.037109 C76.7890555,173.541023 74.8310672,174.292969 72.3212891,174.292969 C70.7490156,174.292969 69.3623107,173.948734 68.1611328,173.260254 C66.9599549,172.571774 66.0371126,171.583014 65.3925781,170.293945 C64.7480437,169.004876 64.4257812,167.500985 64.4257812,165.782227 C64.4257812,163.106432 65.1240165,161.026375 66.5205078,159.541992 C67.9169992,158.05761 69.8798702,157.31543 72.4091797,157.31543 C73.9814532,157.31543 75.3681581,157.657223 76.5693359,158.34082 C77.7705138,159.024417 78.6933562,160.005853 79.3378906,161.285156 C79.9824251,162.56446 80.3046875,164.063468 80.3046875,165.782227 L80.3046875,165.782227 Z M99.1132812,174 L94.6455078,174 L94.6455078,164.43457 C94.6455078,163.252924 94.435549,162.366702 94.015625,161.775879 C93.595701,161.185056 92.9267624,160.889648 92.0087891,160.889648 C90.7587828,160.889648 89.8554715,161.307125 89.2988281,162.14209 C88.7421847,162.977055 88.4638672,164.361318 88.4638672,166.294922 L88.4638672,174 L83.9960938,174 L83.9960938,157.623047 L87.4091797,157.623047 L88.0097656,159.717773 L88.2587891,159.717773 C88.7568384,158.926754 89.4428667,158.328615 90.3168945,157.92334 C91.1909223,157.518064 92.1845647,157.31543 93.2978516,157.31543 C95.202158,157.31543 96.647456,157.830561 97.6337891,158.86084 C98.6201221,159.891118 99.1132812,161.37792 99.1132812,163.321289 L99.1132812,174 Z M108.180664,174 L103.712891,174 L103.712891,151.207031 L108.180664,151.207031 L108.180664,174 Z M110.524414,157.623047 L115.416992,157.623047 L118.507812,166.836914 C118.771486,167.637699 118.952148,168.584955 119.049805,169.678711 L119.137695,169.678711 C119.245118,168.672847 119.455077,167.72559 119.767578,166.836914 L122.799805,157.623047 L127.589844,157.623047 L120.661133,176.094727 C120.026364,177.803719 119.120611,179.083004 117.943848,179.932617 C116.767084,180.782231 115.392586,181.207031 113.820312,181.207031 C113.048824,181.207031 112.291996,181.124024 111.549805,180.958008 L111.549805,177.413086 C112.086917,177.54004 112.672848,177.603516 113.307617,177.603516 C114.098637,177.603516 114.789548,177.361819 115.380371,176.878418 C115.971194,176.395017 116.432616,175.665044 116.764648,174.688477 L117.02832,173.882812 L110.524414,157.623047 Z M155.304688,174 L150.148438,174 L144.538086,164.976562 L142.619141,166.353516 L142.619141,174 L138.078125,174 L138.078125,152.583984 L142.619141,152.583984 L142.619141,162.383789 L144.40625,159.864258 L150.207031,152.583984 L155.246094,152.583984 L147.775391,162.061523 L155.304688,174 Z M166.642578,174.292969 C164.71874,174.292969 163.209966,173.594734 162.116211,172.198242 L161.881836,172.198242 C162.038087,173.565437 162.116211,174.356444 162.116211,174.571289 L162.116211,181.207031 L157.648438,181.207031 L157.648438,157.623047 L161.28125,157.623047 L161.911133,159.74707 L162.116211,159.74707 C163.161138,158.125968 164.708974,157.31543 166.759766,157.31543 C168.693369,157.31543 170.207026,158.062493 171.300781,159.556641 C172.394537,161.050789 172.941406,163.125963 172.941406,165.782227 C172.941406,167.530282 172.685061,169.048822 172.172363,170.337891 C171.659665,171.62696 170.929692,172.608395 169.982422,173.282227 C169.035152,173.956058 167.921881,174.292969 166.642578,174.292969 L166.642578,174.292969 Z M165.324219,160.889648 C164.220698,160.889648 163.415042,161.229001 162.907227,161.907715 C162.399412,162.586429 162.135742,163.707023 162.116211,165.269531 L162.116211,165.75293 C162.116211,167.510751 162.377439,168.770504 162.899902,169.532227 C163.422366,170.293949 164.249994,170.674805 165.382812,170.674805 C167.384776,170.674805 168.385742,169.024431 168.385742,165.723633 C168.385742,164.112297 168.139163,162.903813 167.645996,162.098145 C167.15283,161.292476 166.378912,160.889648 165.324219,160.889648 L165.324219,160.889648 Z M180.192383,165.782227 C180.192383,167.403328 180.458493,168.628902 180.990723,169.458984 C181.522952,170.289067 182.389642,170.704102 183.59082,170.704102 C184.782233,170.704102 185.639158,170.291508 186.161621,169.466309 C186.684085,168.641109 186.945312,167.413094 186.945312,165.782227 C186.945312,164.161125 186.681643,162.945317 186.154297,162.134766 C185.62695,161.324215 184.762701,160.918945 183.561523,160.918945 C182.370111,160.918945 181.510745,161.321773 180.983398,162.127441 C180.456052,162.933109 180.192383,164.151359 180.192383,165.782227 L180.192383,165.782227 Z M191.515625,165.782227 C191.515625,168.448256 190.812507,170.533196 189.40625,172.037109 C187.999993,173.541023 186.042005,174.292969 183.532227,174.292969 C181.959953,174.292969 180.573248,173.948734 179.37207,173.260254 C178.170892,172.571774 177.24805,171.583014 176.603516,170.293945 C175.958981,169.004876 175.636719,167.500985 175.636719,165.782227 C175.636719,163.106432 176.334954,161.026375 177.731445,159.541992 C179.127937,158.05761 181.090808,157.31543 183.620117,157.31543 C185.192391,157.31543 186.579096,157.657223 187.780273,158.34082 C188.981451,159.024417 189.904294,160.005853 190.548828,161.285156 C191.193363,162.56446 191.515625,164.063468 191.515625,165.782227 L191.515625,165.782227 Z M204.201172,174.292969 C202.277334,174.292969 200.76856,173.594734 199.674805,172.198242 L199.44043,172.198242 C199.59668,173.565437 199.674805,174.356444 199.674805,174.571289 L199.674805,181.207031 L195.207031,181.207031 L195.207031,157.623047 L198.839844,157.623047 L199.469727,159.74707 L199.674805,159.74707 C200.719732,158.125968 202.267568,157.31543 204.318359,157.31543 C206.251963,157.31543 207.76562,158.062493 208.859375,159.556641 C209.95313,161.050789 210.5,163.125963 210.5,165.782227 C210.5,167.530282 210.243655,169.048822 209.730957,170.337891 C209.218259,171.62696 208.488286,172.608395 207.541016,173.282227 C206.593745,173.956058 205.480475,174.292969 204.201172,174.292969 L204.201172,174.292969 Z M202.882812,160.889648 C201.779291,160.889648 200.973635,161.229001 200.46582,161.907715 C199.958005,162.586429 199.694336,163.707023 199.674805,165.269531 L199.674805,165.75293 C199.674805,167.510751 199.936033,168.770504 200.458496,169.532227 C200.98096,170.293949 201.808588,170.674805 202.941406,170.674805 C204.943369,170.674805 205.944336,169.024431 205.944336,165.723633 C205.944336,164.112297 205.697756,162.903813 205.20459,162.098145 C204.711423,161.292476 203.937505,160.889648 202.882812,160.889648 L202.882812,160.889648 Z M230.978516,174.292969 C229.054678,174.292969 227.545904,173.594734 226.452148,172.198242 L226.217773,172.198242 C226.374024,173.565437 226.452148,174.356444 226.452148,174.571289 L226.452148,181.207031 L221.984375,181.207031 L221.984375,157.623047 L225.617188,157.623047 L226.24707,159.74707 L226.452148,159.74707 C227.497076,158.125968 229.044912,157.31543 231.095703,157.31543 C233.029307,157.31543 234.542963,158.062493 235.636719,159.556641 C236.730474,161.050789 237.277344,163.125963 237.277344,165.782227 C237.277344,167.530282 237.020999,169.048822 236.508301,170.337891 C235.995603,171.62696 235.26563,172.608395 234.318359,173.282227 C233.371089,173.956058 232.257819,174.292969 230.978516,174.292969 L230.978516,174.292969 Z M229.660156,160.889648 C228.556635,160.889648 227.750979,161.229001 227.243164,161.907715 C226.735349,162.586429 226.47168,163.707023 226.452148,165.269531 L226.452148,165.75293 C226.452148,167.510751 226.713376,168.770504 227.23584,169.532227 C227.758303,170.293949 228.585932,170.674805 229.71875,170.674805 C231.720713,170.674805 232.72168,169.024431 232.72168,165.723633 C232.72168,164.112297 232.4751,162.903813 231.981934,162.098145 C231.488767,161.292476 230.714849,160.889648 229.660156,160.889648 L229.660156,160.889648 Z M245.436523,174 L240.96875,174 L240.96875,151.207031 L245.436523,151.207031 L245.436523,174 Z M260.524414,174 L259.660156,171.773438 L259.542969,171.773438 C258.791012,172.720708 258.017094,173.37744 257.221191,173.743652 C256.425289,174.109865 255.387702,174.292969 254.108398,174.292969 C252.536125,174.292969 251.298344,173.843754 250.39502,172.945312 C249.491695,172.046871 249.040039,170.767586 249.040039,169.107422 C249.040039,167.369132 249.647943,166.087406 250.86377,165.262207 C252.079596,164.437008 253.913074,163.980469 256.364258,163.892578 L259.206055,163.804688 L259.206055,163.086914 C259.206055,161.42675 258.356454,160.59668 256.657227,160.59668 C255.348626,160.59668 253.810556,160.992184 252.042969,161.783203 L250.563477,158.765625 C252.448252,157.779292 254.538074,157.286133 256.833008,157.286133 C259.030284,157.286133 260.714838,157.764644 261.886719,158.72168 C263.0586,159.678716 263.644531,161.133779 263.644531,163.086914 L263.644531,174 L260.524414,174 Z M259.206055,166.412109 L257.477539,166.470703 C256.178704,166.509766 255.211917,166.744138 254.577148,167.173828 C253.94238,167.603518 253.625,168.257808 253.625,169.136719 C253.625,170.396491 254.347649,171.026367 255.792969,171.026367 C256.82813,171.026367 257.655759,170.728519 258.275879,170.132812 C258.895999,169.537106 259.206055,168.746099 259.206055,167.759766 L259.206055,166.412109 Z M265.900391,157.623047 L270.792969,157.623047 L273.883789,166.836914 C274.147462,167.637699 274.328125,168.584955 274.425781,169.678711 L274.513672,169.678711 C274.621094,168.672847 274.831053,167.72559 275.143555,166.836914 L278.175781,157.623047 L282.96582,157.623047 L276.037109,176.094727 C275.402341,177.803719 274.496588,179.083004 273.319824,179.932617 C272.143061,180.782231 270.768563,181.207031 269.196289,181.207031 C268.424801,181.207031 267.667972,181.124024 266.925781,180.958008 L266.925781,177.413086 C267.462893,177.54004 268.048825,177.603516 268.683594,177.603516 C269.474613,177.603516 270.165524,177.361819 270.756348,176.878418 C271.347171,176.395017 271.808592,175.665044 272.140625,174.688477 L272.404297,173.882812 L265.900391,157.623047 Z M299.5625,157.623047 L299.5625,159.893555 L296.999023,160.552734 C297.467776,161.28516 297.702148,162.105464 297.702148,163.013672 C297.702148,164.771493 297.089362,166.141108 295.86377,167.122559 C294.638177,168.104009 292.936534,168.594727 290.758789,168.594727 L289.953125,168.550781 L289.293945,168.477539 C288.834959,168.829103 288.605469,169.219724 288.605469,169.649414 C288.605469,170.293949 289.425773,170.616211 291.066406,170.616211 L293.849609,170.616211 C295.646493,170.616211 297.016109,171.001949 297.958496,171.773438 C298.900884,172.544926 299.37207,173.677727 299.37207,175.171875 C299.37207,177.085947 298.573738,178.570307 296.977051,179.625 C295.380363,180.679693 293.087906,181.207031 290.099609,181.207031 C287.814442,181.207031 286.068854,180.809086 284.862793,180.013184 C283.656732,179.217281 283.053711,178.10157 283.053711,176.666016 C283.053711,175.679683 283.361325,174.854496 283.976562,174.19043 C284.5918,173.526364 285.495111,173.052736 286.686523,172.769531 C286.227537,172.574218 285.82715,172.254397 285.485352,171.810059 C285.143553,171.36572 284.972656,170.894534 284.972656,170.396484 C284.972656,169.771481 285.153319,169.251467 285.514648,168.836426 C285.875978,168.421385 286.398434,168.013674 287.082031,167.613281 C286.222652,167.242186 285.541506,166.646488 285.038574,165.826172 C284.535642,165.005855 284.28418,164.039068 284.28418,162.925781 C284.28418,161.138663 284.865229,159.756841 286.027344,158.780273 C287.189459,157.803706 288.849599,157.31543 291.007812,157.31543 C291.466799,157.31543 292.011227,157.356933 292.641113,157.439941 C293.270999,157.52295 293.673827,157.583984 293.849609,157.623047 L299.5625,157.623047 Z M286.920898,176.314453 C286.920898,176.929691 287.216306,177.413084 287.807129,177.764648 C288.397952,178.116213 289.225581,178.291992 290.290039,178.291992 C291.89161,178.291992 293.14648,178.072268 294.054688,177.632812 C294.962895,177.193357 295.416992,176.592777 295.416992,175.831055 C295.416992,175.215817 295.14844,174.791017 294.611328,174.556641 C294.074216,174.322264 293.244146,174.205078 292.121094,174.205078 L289.806641,174.205078 C288.986324,174.205078 288.300296,174.397947 287.748535,174.783691 C287.196775,175.169436 286.920898,175.679684 286.920898,176.314453 L286.920898,176.314453 Z M288.546875,162.984375 C288.546875,163.873051 288.74951,164.576169 289.154785,165.09375 C289.560061,165.611331 290.17773,165.870117 291.007812,165.870117 C291.84766,165.870117 292.462889,165.611331 292.853516,165.09375 C293.244143,164.576169 293.439453,163.873051 293.439453,162.984375 C293.439453,161.011709 292.628914,160.025391 291.007812,160.025391 C289.367179,160.025391 288.546875,161.011709 288.546875,162.984375 L288.546875,162.984375 Z M311.398438,157.31543 C312.003909,157.31543 312.506834,157.359375 312.907227,157.447266 L312.570312,161.636719 C312.208983,161.539062 311.769534,161.490234 311.251953,161.490234 C309.826165,161.490234 308.715336,161.856442 307.919434,162.588867 C307.123531,163.321293 306.725586,164.346673 306.725586,165.665039 L306.725586,174 L302.257812,174 L302.257812,157.623047 L305.641602,157.623047 L306.300781,160.376953 L306.520508,160.376953 C307.028323,159.45898 307.714351,158.719241 308.578613,158.157715 C309.442875,157.596189 310.382807,157.31543 311.398438,157.31543 L311.398438,157.31543 Z M319.44043,165.782227 C319.44043,167.403328 319.70654,168.628902 320.23877,169.458984 C320.770999,170.289067 321.637689,170.704102 322.838867,170.704102 C324.030279,170.704102 324.887204,170.291508 325.409668,169.466309 C325.932132,168.641109 326.193359,167.413094 326.193359,165.782227 C326.193359,164.161125 325.92969,162.945317 325.402344,162.134766 C324.874997,161.324215 324.010748,160.918945 322.80957,160.918945 C321.618158,160.918945 320.758792,161.321773 320.231445,162.127441 C319.704099,162.933109 319.44043,164.151359 319.44043,165.782227 L319.44043,165.782227 Z M330.763672,165.782227 C330.763672,168.448256 330.060554,170.533196 328.654297,172.037109 C327.24804,173.541023 325.290052,174.292969 322.780273,174.292969 C321.208,174.292969 319.821295,173.948734 318.620117,173.260254 C317.418939,172.571774 316.496097,171.583014 315.851562,170.293945 C315.207028,169.004876 314.884766,167.500985 314.884766,165.782227 C314.884766,163.106432 315.583001,161.026375 316.979492,159.541992 C318.375984,158.05761 320.338855,157.31543 322.868164,157.31543 C324.440438,157.31543 325.827142,157.657223 327.02832,158.34082 C328.229498,159.024417 329.152341,160.005853 329.796875,161.285156 C330.441409,162.56446 330.763672,164.063468 330.763672,165.782227 L330.763672,165.782227 Z M346.056641,174 L345.456055,171.905273 L345.22168,171.905273 C344.743162,172.666996 344.064458,173.255369 343.185547,173.67041 C342.306636,174.085451 341.30567,174.292969 340.182617,174.292969 C338.258779,174.292969 336.808599,173.777837 335.832031,172.747559 C334.855464,171.71728 334.367188,170.235361 334.367188,168.301758 L334.367188,157.623047 L338.834961,157.623047 L338.834961,167.188477 C338.834961,168.370123 339.04492,169.256345 339.464844,169.847168 C339.884768,170.437991 340.553706,170.733398 341.47168,170.733398 C342.721686,170.733398 343.624997,170.315922 344.181641,169.480957 C344.738284,168.645992 345.016602,167.261728 345.016602,165.328125 L345.016602,157.623047 L349.484375,157.623047 L349.484375,174 L346.056641,174 Z M369.289062,174 L364.821289,174 L364.821289,164.43457 C364.821289,163.252924 364.61133,162.366702 364.191406,161.775879 C363.771482,161.185056 363.102544,160.889648 362.18457,160.889648 C360.934564,160.889648 360.031253,161.307125 359.474609,162.14209 C358.917966,162.977055 358.639648,164.361318 358.639648,166.294922 L358.639648,174 L354.171875,174 L354.171875,157.623047 L357.584961,157.623047 L358.185547,159.717773 L358.43457,159.717773 C358.93262,158.926754 359.618648,158.328615 360.492676,157.92334 C361.366704,157.518064 362.360346,157.31543 363.473633,157.31543 C365.377939,157.31543 366.823237,157.830561 367.80957,158.86084 C368.795903,159.891118 369.289062,161.37792 369.289062,163.321289 L369.289062,174 Z M379.074219,174.292969 C377.150381,174.292969 375.639166,173.545906 374.540527,172.051758 C373.441889,170.55761 372.892578,168.487318 372.892578,165.84082 C372.892578,163.15526 373.451655,161.062996 374.569824,159.563965 C375.687994,158.064934 377.228506,157.31543 379.191406,157.31543 C381.251963,157.31543 382.824213,158.116203 383.908203,159.717773 L384.054688,159.717773 C383.830077,158.497064 383.717773,157.408208 383.717773,156.451172 L383.717773,151.207031 L388.200195,151.207031 L388.200195,174 L384.772461,174 L383.908203,171.875977 L383.717773,171.875977 C382.702143,173.487313 381.154307,174.292969 379.074219,174.292969 L379.074219,174.292969 Z M380.641602,170.733398 C381.784185,170.733398 382.621579,170.401371 383.153809,169.737305 C383.686038,169.073239 383.976562,167.94532 384.025391,166.353516 L384.025391,165.870117 C384.025391,164.112296 383.754397,162.852543 383.212402,162.09082 C382.670407,161.329098 381.789069,160.948242 380.568359,160.948242 C379.572261,160.948242 378.798343,161.370601 378.246582,162.215332 C377.694821,163.060063 377.418945,164.288078 377.418945,165.899414 C377.418945,167.51075 377.697263,168.719234 378.253906,169.524902 C378.81055,170.33057 379.60644,170.733398 380.641602,170.733398 L380.641602,170.733398 Z" id="path-1"></path>
        <filter x="-50%" y="-50%" width="200%" height="200%" filterUnits="objectBoundingBox" id="filter-2">
            <feOffset dx="0" dy="4" in="SourceAlpha" result="shadowOffsetOuter1"></feOffset>
            <feGaussianBlur stdDeviation="3" in="shadowOffsetOuter1" result="shadowBlurOuter1"></feGaussianBlur>
            <feColorMatrix values="0 0 0 0 0   0 0 0 0 0   0 0 0 0 0  0 0 0 0.346976902 0" type="matrix" in="shadowBlurOuter1"></feColorMatrix>
        </filter>
        <path d="M0.215,0.84 L11.265,0.84 L11.265,57.78 L38.045,31 L53.645,31 L21.145,63.5 L53.645,96 L38.045,96 L11.265,69.22 L11.265,96 L0.215,96 L0.215,0.84 Z M96.025,29.83 C100.705023,29.83 105.103313,30.7183245 109.22,32.495 C113.336687,34.2716756 116.933318,36.6766515 120.01,39.71 C123.086682,42.7433485 125.513324,46.3399792 127.29,50.5 C129.066676,54.6600208 129.955,59.0799766 129.955,63.76 C129.955,68.4400234 129.066676,72.8166463 127.29,76.89 C125.513324,80.9633537 123.086682,84.538318 120.01,87.615 C116.933318,90.6916821 113.336687,93.1183245 109.22,94.895 C105.103313,96.6716756 100.705023,97.56 96.025,97.56 C91.6049779,97.56 87.4666859,96.8016742 83.61,95.285 C79.7533141,93.7683258 76.3083485,91.6233472 73.275,88.85 L73.275,126.29 L62.095,126.29 L62.095,63.76 C62.095,59.0799766 62.9833244,54.6600208 64.76,50.5 C66.5366755,46.3399792 68.963318,42.7433485 72.04,39.71 C75.1166821,36.6766515 78.7133128,34.2716756 82.83,32.495 C86.9466872,30.7183245 91.3449766,29.83 96.025,29.83 L96.025,29.83 Z M96.025,41.01 C92.9049844,41.01 89.9583472,41.5949941 87.185,42.765 C84.4116528,43.9350059 81.9850104,45.5599896 79.905,47.64 C77.8249896,49.7200104 76.2000058,52.1466528 75.03,54.92 C73.8599942,57.6933472 73.275,60.6399844 73.275,63.76 C73.275,66.8800156 73.8599942,69.8266528 75.03,72.6 C76.2000058,75.3733472 77.8249896,77.7783231 79.905,79.815 C81.9850104,81.8516768 84.4116528,83.4766606 87.185,84.69 C89.9583472,85.9033394 92.9049844,86.51 96.025,86.51 C99.1450156,86.51 102.091653,85.9033394 104.865,84.69 C107.638347,83.4766606 110.06499,81.8516768 112.145,79.815 C114.22501,77.7783231 115.849994,75.3733472 117.02,72.6 C118.190006,69.8266528 118.775,66.8800156 118.775,63.76 C118.775,60.6399844 118.190006,57.6933472 117.02,54.92 C115.849994,52.1466528 114.22501,49.7200104 112.145,47.64 C110.06499,45.5599896 107.638347,43.9350059 104.865,42.765 C102.091653,41.5949941 99.1450156,41.01 96.025,41.01 L96.025,41.01 Z M175.325,29.57 C180.005023,29.57 184.403313,30.4583244 188.52,32.235 C192.636687,34.0116756 196.233318,36.4166515 199.31,39.45 C202.386682,42.4833485 204.813324,46.0799792 206.59,50.24 C208.366676,54.4000208 209.255,58.8199766 209.255,63.5 C209.255,68.1800234 208.366676,72.5783127 206.59,76.695 C204.813324,80.8116872 202.386682,84.3866515 199.31,87.42 C196.233318,90.4533485 192.636687,92.8583244 188.52,94.635 C184.403313,96.4116755 180.005023,97.3 175.325,97.3 C170.644977,97.3 166.268354,96.4116755 162.195,94.635 C158.121646,92.8583244 154.546682,90.4533485 151.47,87.42 C148.393318,84.3866515 145.966676,80.8116872 144.19,76.695 C142.413324,72.5783127 141.525,68.1800234 141.525,63.5 C141.525,58.8199766 142.413324,54.4000208 144.19,50.24 C145.966676,46.0799792 148.393318,42.4833485 151.47,39.45 C154.546682,36.4166515 158.121646,34.0116756 162.195,32.235 C166.268354,30.4583244 170.644977,29.57 175.325,29.57 L175.325,29.57 Z M175.325,40.75 C172.204984,40.75 169.258347,41.3349941 166.485,42.505 C163.711653,43.6750058 161.28501,45.2999896 159.205,47.38 C157.12499,49.4600104 155.500006,51.8866528 154.33,54.66 C153.159994,57.4333472 152.575,60.3799844 152.575,63.5 C152.575,66.6200156 153.159994,69.5666528 154.33,72.34 C155.500006,75.1133472 157.12499,77.5183232 159.205,79.555 C161.28501,81.5916768 163.711653,83.2166606 166.485,84.43 C169.258347,85.6433394 172.204984,86.25 175.325,86.25 C178.445016,86.25 181.391653,85.6433394 184.165,84.43 C186.938347,83.2166606 189.36499,81.5916768 191.445,79.555 C193.52501,77.5183232 195.149994,75.1133472 196.32,72.34 C197.490006,69.5666528 198.075,66.6200156 198.075,63.5 C198.075,60.3799844 197.490006,57.4333472 196.32,54.66 C195.149994,51.8866528 193.52501,49.4600104 191.445,47.38 C189.36499,45.2999896 186.938347,43.6750058 184.165,42.505 C181.391653,41.3349941 178.445016,40.75 175.325,40.75 L175.325,40.75 Z M255.015,29.83 C259.695023,29.83 264.093313,30.7183245 268.21,32.495 C272.326687,34.2716756 275.923318,36.6766515 279,39.71 C282.076682,42.7433485 284.503324,46.3399792 286.28,50.5 C288.056676,54.6600208 288.945,59.0799766 288.945,63.76 C288.945,68.4400234 288.056676,72.8166463 286.28,76.89 C284.503324,80.9633537 282.076682,84.538318 279,87.615 C275.923318,90.6916821 272.326687,93.1183245 268.21,94.895 C264.093313,96.6716756 259.695023,97.56 255.015,97.56 C250.594978,97.56 246.456686,96.8016742 242.6,95.285 C238.743314,93.7683258 235.298349,91.6233472 232.265,88.85 L232.265,126.29 L221.085,126.29 L221.085,63.76 C221.085,59.0799766 221.973324,54.6600208 223.75,50.5 C225.526676,46.3399792 227.953318,42.7433485 231.03,39.71 C234.106682,36.6766515 237.703313,34.2716756 241.82,32.495 C245.936687,30.7183245 250.334977,29.83 255.015,29.83 L255.015,29.83 Z M255.015,41.01 C251.894984,41.01 248.948347,41.5949941 246.175,42.765 C243.401653,43.9350059 240.97501,45.5599896 238.895,47.64 C236.81499,49.7200104 235.190006,52.1466528 234.02,54.92 C232.849994,57.6933472 232.265,60.6399844 232.265,63.76 C232.265,66.8800156 232.849994,69.8266528 234.02,72.6 C235.190006,75.3733472 236.81499,77.7783231 238.895,79.815 C240.97501,81.8516768 243.401653,83.4766606 246.175,84.69 C248.948347,85.9033394 251.894984,86.51 255.015,86.51 C258.135016,86.51 261.081653,85.9033394 263.855,84.69 C266.628347,83.4766606 269.05499,81.8516768 271.135,79.815 C273.21501,77.7783231 274.839994,75.3733472 276.01,72.6 C277.180006,69.8266528 277.765,66.8800156 277.765,63.76 C277.765,60.6399844 277.180006,57.6933472 276.01,54.92 C274.839994,52.1466528 273.21501,49.7200104 271.135,47.64 C269.05499,45.5599896 266.628347,43.9350059 263.855,42.765 C261.081653,41.5949941 258.135016,41.01 255.015,41.01 L255.015,41.01 Z M300.385,31 L311.565,31 L311.565,96 L300.385,96 L300.385,31 Z M300.385,0.84 L311.565,0.84 L311.565,15.92 L300.385,15.92 L300.385,0.84 Z M356.025,29.57 C360.705023,29.57 365.103313,30.4583244 369.22,32.235 C373.336687,34.0116756 376.933318,36.4166515 380.01,39.45 C383.086682,42.4833485 385.513324,46.0799792 387.29,50.24 C389.066676,54.4000208 389.955,58.8199766 389.955,63.5 C389.955,68.1800234 389.066676,72.5783127 387.29,76.695 C385.513324,80.8116872 383.086682,84.3866515 380.01,87.42 C376.933318,90.4533485 373.336687,92.8583244 369.22,94.635 C365.103313,96.4116755 360.705023,97.3 356.025,97.3 C351.344977,97.3 346.968354,96.4116755 342.895,94.635 C338.821646,92.8583244 335.246682,90.4533485 332.17,87.42 C329.093318,84.3866515 326.666676,80.8116872 324.89,76.695 C323.113324,72.5783127 322.225,68.1800234 322.225,63.5 C322.225,58.8199766 323.113324,54.4000208 324.89,50.24 C326.666676,46.0799792 329.093318,42.4833485 332.17,39.45 C335.246682,36.4166515 338.821646,34.0116756 342.895,32.235 C346.968354,30.4583244 351.344977,29.57 356.025,29.57 L356.025,29.57 Z M356.025,40.75 C352.904984,40.75 349.958347,41.3349941 347.185,42.505 C344.411653,43.6750058 341.98501,45.2999896 339.905,47.38 C337.82499,49.4600104 336.200006,51.8866528 335.03,54.66 C333.859994,57.4333472 333.275,60.3799844 333.275,63.5 C333.275,66.6200156 333.859994,69.5666528 335.03,72.34 C336.200006,75.1133472 337.82499,77.5183232 339.905,79.555 C341.98501,81.5916768 344.411653,83.2166606 347.185,84.43 C349.958347,85.6433394 352.904984,86.25 356.025,86.25 C359.145016,86.25 362.091653,85.6433394 364.865,84.43 C367.638347,83.2166606 370.06499,81.5916768 372.145,79.555 C374.22501,77.5183232 375.849994,75.1133472 377.02,72.34 C378.190006,69.5666528 378.775,66.6200156 378.775,63.5 C378.775,60.3799844 378.190006,57.4333472 377.02,54.66 C375.849994,51.8866528 374.22501,49.4600104 372.145,47.38 C370.06499,45.2999896 367.638347,43.6750058 364.865,42.505 C362.091653,41.3349941 359.145016,40.75 356.025,40.75 L356.025,40.75 Z" id="path-3"></path>
        <filter x="-50%" y="-50%" width="200%" height="200%" filterUnits="objectBoundingBox" id="filter-4">
            <feOffset dx="0" dy="4" in="SourceAlpha" result="shadowOffsetOuter1"></feOffset>
            <feGaussianBlur stdDeviation="3" in="shadowOffsetOuter1" result="shadowBlurOuter1"></feGaussianBlur>
            <feColorMatrix values="0 0 0 0 0   0 0 0 0 0   0 0 0 0 0  0 0 0 0.377717391 0" type="matrix" in="shadowBlurOuter1"></feColorMatrix>
        </filter>
    </defs>
    <g id="title" stroke="none" stroke-width="1" fill="none" fill-rule="evenodd">
        <g transform="translate(6.000000, 2.000000)">
            <g id="The-only-Kpop-playgr">
                <use fill="black" fill-opacity="1" filter="url(#filter-2)" xlink:href="#path-1"></use>
                <use fill="#FFFFFF" fill-rule="evenodd" xlink:href="#path-1"></use>
            </g>
            <g id="kpopio">
                <use fill="black" fill-opacity="1" filter="url(#filter-4)" xlink:href="#path-3"></use>
                <use fill="#FFFFFF" fill-rule="evenodd" xlink:href="#path-3"></use>
            </g>
        </g>
    </g>
</svg>